<mxfile host="app.diagrams.net" agent="Mozilla/5.0 (Windows NT 10.0; Win64; x64) AppleWebKit/537.36 (KHTML, like Gecko) Chrome/134.0.0.0 Safari/537.36 Edg/134.0.0.0" version="26.1.1">
  <diagram id="C5RBs43oDa-KdzZeNtuy" name="Page-1">
    <mxGraphModel dx="2110" dy="1738" grid="1" gridSize="10" guides="1" tooltips="1" connect="1" arrows="1" fold="1" page="1" pageScale="1" pageWidth="827" pageHeight="1169" math="0" shadow="0">
      <root>
        <mxCell id="WIyWlLk6GJQsqaUBKTNV-0" />
        <mxCell id="WIyWlLk6GJQsqaUBKTNV-1" parent="WIyWlLk6GJQsqaUBKTNV-0" />
        <mxCell id="3-XoSxSuhK3-_moCdqqF-1" value="" style="edgeStyle=orthogonalEdgeStyle;rounded=0;orthogonalLoop=1;jettySize=auto;html=1;" edge="1" parent="WIyWlLk6GJQsqaUBKTNV-1" source="WIyWlLk6GJQsqaUBKTNV-3" target="3-XoSxSuhK3-_moCdqqF-0">
          <mxGeometry relative="1" as="geometry" />
        </mxCell>
        <mxCell id="WIyWlLk6GJQsqaUBKTNV-3" value="socket" style="rounded=1;whiteSpace=wrap;html=1;fontSize=12;glass=0;strokeWidth=1;shadow=0;" parent="WIyWlLk6GJQsqaUBKTNV-1" vertex="1">
          <mxGeometry x="-100" y="70" width="60" height="20" as="geometry" />
        </mxCell>
        <mxCell id="3-XoSxSuhK3-_moCdqqF-3" value="" style="edgeStyle=orthogonalEdgeStyle;rounded=0;orthogonalLoop=1;jettySize=auto;html=1;" edge="1" parent="WIyWlLk6GJQsqaUBKTNV-1" source="3-XoSxSuhK3-_moCdqqF-0" target="3-XoSxSuhK3-_moCdqqF-2">
          <mxGeometry relative="1" as="geometry" />
        </mxCell>
        <mxCell id="3-XoSxSuhK3-_moCdqqF-0" value="bind" style="rounded=1;whiteSpace=wrap;html=1;fontSize=12;glass=0;strokeWidth=1;shadow=0;" vertex="1" parent="WIyWlLk6GJQsqaUBKTNV-1">
          <mxGeometry x="-20" y="70" width="40" height="20" as="geometry" />
        </mxCell>
        <mxCell id="3-XoSxSuhK3-_moCdqqF-9" value="" style="edgeStyle=orthogonalEdgeStyle;rounded=0;orthogonalLoop=1;jettySize=auto;html=1;" edge="1" parent="WIyWlLk6GJQsqaUBKTNV-1" source="3-XoSxSuhK3-_moCdqqF-2" target="3-XoSxSuhK3-_moCdqqF-5">
          <mxGeometry relative="1" as="geometry" />
        </mxCell>
        <mxCell id="3-XoSxSuhK3-_moCdqqF-2" value="listen" style="rounded=1;whiteSpace=wrap;html=1;fontSize=12;glass=0;strokeWidth=1;shadow=0;" vertex="1" parent="WIyWlLk6GJQsqaUBKTNV-1">
          <mxGeometry x="40" y="70" width="60" height="20" as="geometry" />
        </mxCell>
        <mxCell id="3-XoSxSuhK3-_moCdqqF-11" style="edgeStyle=orthogonalEdgeStyle;rounded=0;orthogonalLoop=1;jettySize=auto;html=1;entryX=0;entryY=0.5;entryDx=0;entryDy=0;" edge="1" parent="WIyWlLk6GJQsqaUBKTNV-1" source="3-XoSxSuhK3-_moCdqqF-4" target="3-XoSxSuhK3-_moCdqqF-10">
          <mxGeometry relative="1" as="geometry">
            <Array as="points">
              <mxPoint x="-70" y="150" />
            </Array>
          </mxGeometry>
        </mxCell>
        <mxCell id="3-XoSxSuhK3-_moCdqqF-52" value="" style="edgeStyle=orthogonalEdgeStyle;rounded=0;orthogonalLoop=1;jettySize=auto;html=1;entryX=0;entryY=0.5;entryDx=0;entryDy=0;exitX=0.5;exitY=1;exitDx=0;exitDy=0;" edge="1" parent="WIyWlLk6GJQsqaUBKTNV-1" source="3-XoSxSuhK3-_moCdqqF-4" target="3-XoSxSuhK3-_moCdqqF-50">
          <mxGeometry relative="1" as="geometry" />
        </mxCell>
        <mxCell id="3-XoSxSuhK3-_moCdqqF-4" value="socket" style="rounded=1;whiteSpace=wrap;html=1;fontSize=12;glass=0;strokeWidth=1;shadow=0;" vertex="1" parent="WIyWlLk6GJQsqaUBKTNV-1">
          <mxGeometry x="-100" y="170" width="60" height="20" as="geometry" />
        </mxCell>
        <mxCell id="3-XoSxSuhK3-_moCdqqF-86" value="" style="edgeStyle=orthogonalEdgeStyle;rounded=0;orthogonalLoop=1;jettySize=auto;html=1;" edge="1" parent="WIyWlLk6GJQsqaUBKTNV-1" source="3-XoSxSuhK3-_moCdqqF-5" target="3-XoSxSuhK3-_moCdqqF-85">
          <mxGeometry relative="1" as="geometry" />
        </mxCell>
        <mxCell id="3-XoSxSuhK3-_moCdqqF-5" value="accept" style="rounded=1;whiteSpace=wrap;html=1;fontSize=12;glass=0;strokeWidth=1;shadow=0;" vertex="1" parent="WIyWlLk6GJQsqaUBKTNV-1">
          <mxGeometry x="120" y="70" width="60" height="20" as="geometry" />
        </mxCell>
        <mxCell id="3-XoSxSuhK3-_moCdqqF-114" value="" style="edgeStyle=orthogonalEdgeStyle;rounded=0;orthogonalLoop=1;jettySize=auto;html=1;" edge="1" parent="WIyWlLk6GJQsqaUBKTNV-1" source="3-XoSxSuhK3-_moCdqqF-10" target="3-XoSxSuhK3-_moCdqqF-87">
          <mxGeometry relative="1" as="geometry" />
        </mxCell>
        <mxCell id="3-XoSxSuhK3-_moCdqqF-10" value="connect" style="rounded=1;whiteSpace=wrap;html=1;fontSize=12;glass=0;strokeWidth=1;shadow=0;" vertex="1" parent="WIyWlLk6GJQsqaUBKTNV-1">
          <mxGeometry x="120" y="140" width="60" height="20" as="geometry" />
        </mxCell>
        <mxCell id="3-XoSxSuhK3-_moCdqqF-19" value="" style="endArrow=none;html=1;rounded=0;" edge="1" parent="WIyWlLk6GJQsqaUBKTNV-1">
          <mxGeometry width="50" height="50" relative="1" as="geometry">
            <mxPoint x="150" y="120" as="sourcePoint" />
            <mxPoint x="120" y="120" as="targetPoint" />
          </mxGeometry>
        </mxCell>
        <mxCell id="3-XoSxSuhK3-_moCdqqF-20" value="Ponto de Sincronização" style="text;html=1;align=center;verticalAlign=middle;whiteSpace=wrap;rounded=0;" vertex="1" parent="WIyWlLk6GJQsqaUBKTNV-1">
          <mxGeometry x="40" y="100" width="80" height="30" as="geometry" />
        </mxCell>
        <mxCell id="3-XoSxSuhK3-_moCdqqF-21" value="" style="endArrow=classic;startArrow=classic;html=1;rounded=0;entryX=0.5;entryY=1;entryDx=0;entryDy=0;exitX=0.5;exitY=0;exitDx=0;exitDy=0;" edge="1" parent="WIyWlLk6GJQsqaUBKTNV-1" source="3-XoSxSuhK3-_moCdqqF-10" target="3-XoSxSuhK3-_moCdqqF-5">
          <mxGeometry width="50" height="50" relative="1" as="geometry">
            <mxPoint x="20" y="260" as="sourcePoint" />
            <mxPoint x="70" y="210" as="targetPoint" />
          </mxGeometry>
        </mxCell>
        <mxCell id="3-XoSxSuhK3-_moCdqqF-25" value="" style="edgeStyle=orthogonalEdgeStyle;rounded=0;orthogonalLoop=1;jettySize=auto;html=1;" edge="1" parent="WIyWlLk6GJQsqaUBKTNV-1" source="3-XoSxSuhK3-_moCdqqF-22" target="3-XoSxSuhK3-_moCdqqF-24">
          <mxGeometry relative="1" as="geometry" />
        </mxCell>
        <mxCell id="3-XoSxSuhK3-_moCdqqF-22" value="receive" style="rounded=1;whiteSpace=wrap;html=1;fontSize=12;glass=0;strokeWidth=1;shadow=0;" vertex="1" parent="WIyWlLk6GJQsqaUBKTNV-1">
          <mxGeometry x="390" y="70" width="60" height="20" as="geometry" />
        </mxCell>
        <mxCell id="3-XoSxSuhK3-_moCdqqF-36" style="edgeStyle=orthogonalEdgeStyle;rounded=0;orthogonalLoop=1;jettySize=auto;html=1;entryX=0.5;entryY=0;entryDx=0;entryDy=0;" edge="1" parent="WIyWlLk6GJQsqaUBKTNV-1" source="3-XoSxSuhK3-_moCdqqF-24" target="3-XoSxSuhK3-_moCdqqF-22">
          <mxGeometry relative="1" as="geometry">
            <Array as="points">
              <mxPoint x="530" y="60" />
              <mxPoint x="420" y="60" />
            </Array>
          </mxGeometry>
        </mxCell>
        <mxCell id="3-XoSxSuhK3-_moCdqqF-38" value="" style="edgeStyle=orthogonalEdgeStyle;rounded=0;orthogonalLoop=1;jettySize=auto;html=1;" edge="1" parent="WIyWlLk6GJQsqaUBKTNV-1" source="3-XoSxSuhK3-_moCdqqF-24" target="3-XoSxSuhK3-_moCdqqF-29">
          <mxGeometry relative="1" as="geometry" />
        </mxCell>
        <mxCell id="3-XoSxSuhK3-_moCdqqF-39" value="OK 100" style="edgeLabel;html=1;align=center;verticalAlign=middle;resizable=0;points=[];" vertex="1" connectable="0" parent="3-XoSxSuhK3-_moCdqqF-38">
          <mxGeometry x="-0.1556" y="-3" relative="1" as="geometry">
            <mxPoint y="-1" as="offset" />
          </mxGeometry>
        </mxCell>
        <mxCell id="3-XoSxSuhK3-_moCdqqF-109" value="" style="edgeStyle=orthogonalEdgeStyle;rounded=0;orthogonalLoop=1;jettySize=auto;html=1;" edge="1" parent="WIyWlLk6GJQsqaUBKTNV-1" source="3-XoSxSuhK3-_moCdqqF-24" target="3-XoSxSuhK3-_moCdqqF-99">
          <mxGeometry relative="1" as="geometry" />
        </mxCell>
        <mxCell id="3-XoSxSuhK3-_moCdqqF-24" value="send" style="rounded=1;whiteSpace=wrap;html=1;fontSize=12;glass=0;strokeWidth=1;shadow=0;" vertex="1" parent="WIyWlLk6GJQsqaUBKTNV-1">
          <mxGeometry x="500" y="70" width="60" height="20" as="geometry" />
        </mxCell>
        <mxCell id="3-XoSxSuhK3-_moCdqqF-26" value="close" style="rounded=1;whiteSpace=wrap;html=1;fontSize=12;glass=0;strokeWidth=1;shadow=0;" vertex="1" parent="WIyWlLk6GJQsqaUBKTNV-1">
          <mxGeometry x="850" y="70" width="60" height="20" as="geometry" />
        </mxCell>
        <mxCell id="3-XoSxSuhK3-_moCdqqF-31" value="" style="edgeStyle=orthogonalEdgeStyle;rounded=0;orthogonalLoop=1;jettySize=auto;html=1;" edge="1" parent="WIyWlLk6GJQsqaUBKTNV-1" source="3-XoSxSuhK3-_moCdqqF-28" target="3-XoSxSuhK3-_moCdqqF-29">
          <mxGeometry relative="1" as="geometry" />
        </mxCell>
        <mxCell id="3-XoSxSuhK3-_moCdqqF-40" value="" style="edgeStyle=orthogonalEdgeStyle;rounded=0;orthogonalLoop=1;jettySize=auto;html=1;" edge="1" parent="WIyWlLk6GJQsqaUBKTNV-1" source="3-XoSxSuhK3-_moCdqqF-28" target="3-XoSxSuhK3-_moCdqqF-22">
          <mxGeometry relative="1" as="geometry" />
        </mxCell>
        <mxCell id="3-XoSxSuhK3-_moCdqqF-41" value="ficheiro csv" style="edgeLabel;html=1;align=center;verticalAlign=middle;resizable=0;points=[];" vertex="1" connectable="0" parent="3-XoSxSuhK3-_moCdqqF-40">
          <mxGeometry x="0.0222" y="-3" relative="1" as="geometry">
            <mxPoint y="-1" as="offset" />
          </mxGeometry>
        </mxCell>
        <mxCell id="3-XoSxSuhK3-_moCdqqF-28" value="send" style="rounded=1;whiteSpace=wrap;html=1;fontSize=12;glass=0;strokeWidth=1;shadow=0;" vertex="1" parent="WIyWlLk6GJQsqaUBKTNV-1">
          <mxGeometry x="390" y="140" width="60" height="20" as="geometry" />
        </mxCell>
        <mxCell id="3-XoSxSuhK3-_moCdqqF-77" value="" style="edgeStyle=orthogonalEdgeStyle;rounded=0;orthogonalLoop=1;jettySize=auto;html=1;" edge="1" parent="WIyWlLk6GJQsqaUBKTNV-1" source="3-XoSxSuhK3-_moCdqqF-29" target="3-XoSxSuhK3-_moCdqqF-68">
          <mxGeometry relative="1" as="geometry" />
        </mxCell>
        <mxCell id="3-XoSxSuhK3-_moCdqqF-110" value="" style="edgeStyle=orthogonalEdgeStyle;rounded=0;orthogonalLoop=1;jettySize=auto;html=1;" edge="1" parent="WIyWlLk6GJQsqaUBKTNV-1" source="3-XoSxSuhK3-_moCdqqF-29" target="3-XoSxSuhK3-_moCdqqF-107">
          <mxGeometry relative="1" as="geometry" />
        </mxCell>
        <mxCell id="3-XoSxSuhK3-_moCdqqF-29" value="receive" style="rounded=1;whiteSpace=wrap;html=1;fontSize=12;glass=0;strokeWidth=1;shadow=0;" vertex="1" parent="WIyWlLk6GJQsqaUBKTNV-1">
          <mxGeometry x="500" y="140" width="60" height="20" as="geometry" />
        </mxCell>
        <mxCell id="3-XoSxSuhK3-_moCdqqF-32" value="close" style="rounded=1;whiteSpace=wrap;html=1;fontSize=12;glass=0;strokeWidth=1;shadow=0;" vertex="1" parent="WIyWlLk6GJQsqaUBKTNV-1">
          <mxGeometry x="850" y="140" width="60" height="20" as="geometry" />
        </mxCell>
        <mxCell id="3-XoSxSuhK3-_moCdqqF-54" value="" style="edgeStyle=orthogonalEdgeStyle;rounded=0;orthogonalLoop=1;jettySize=auto;html=1;" edge="1" parent="WIyWlLk6GJQsqaUBKTNV-1" source="3-XoSxSuhK3-_moCdqqF-50" target="3-XoSxSuhK3-_moCdqqF-53">
          <mxGeometry relative="1" as="geometry" />
        </mxCell>
        <mxCell id="3-XoSxSuhK3-_moCdqqF-50" value="bind" style="rounded=1;whiteSpace=wrap;html=1;fontSize=12;glass=0;strokeWidth=1;shadow=0;" vertex="1" parent="WIyWlLk6GJQsqaUBKTNV-1">
          <mxGeometry x="-20" y="220" width="40" height="20" as="geometry" />
        </mxCell>
        <mxCell id="3-XoSxSuhK3-_moCdqqF-56" value="" style="edgeStyle=orthogonalEdgeStyle;rounded=0;orthogonalLoop=1;jettySize=auto;html=1;" edge="1" parent="WIyWlLk6GJQsqaUBKTNV-1" source="3-XoSxSuhK3-_moCdqqF-53" target="3-XoSxSuhK3-_moCdqqF-55">
          <mxGeometry relative="1" as="geometry" />
        </mxCell>
        <mxCell id="3-XoSxSuhK3-_moCdqqF-53" value="listen" style="rounded=1;whiteSpace=wrap;html=1;fontSize=12;glass=0;strokeWidth=1;shadow=0;" vertex="1" parent="WIyWlLk6GJQsqaUBKTNV-1">
          <mxGeometry x="40" y="220" width="60" height="20" as="geometry" />
        </mxCell>
        <mxCell id="3-XoSxSuhK3-_moCdqqF-136" value="" style="edgeStyle=orthogonalEdgeStyle;rounded=0;orthogonalLoop=1;jettySize=auto;html=1;" edge="1" parent="WIyWlLk6GJQsqaUBKTNV-1" source="3-XoSxSuhK3-_moCdqqF-55" target="3-XoSxSuhK3-_moCdqqF-134">
          <mxGeometry relative="1" as="geometry" />
        </mxCell>
        <mxCell id="3-XoSxSuhK3-_moCdqqF-55" value="accept" style="rounded=1;whiteSpace=wrap;html=1;fontSize=12;glass=0;strokeWidth=1;shadow=0;" vertex="1" parent="WIyWlLk6GJQsqaUBKTNV-1">
          <mxGeometry x="120" y="220" width="60" height="20" as="geometry" />
        </mxCell>
        <mxCell id="3-XoSxSuhK3-_moCdqqF-57" value="&lt;font style=&quot;font-size: 14px;&quot;&gt;Agregador&lt;/font&gt;" style="text;strokeColor=none;fillColor=none;html=1;fontSize=24;fontStyle=1;verticalAlign=middle;align=center;" vertex="1" parent="WIyWlLk6GJQsqaUBKTNV-1">
          <mxGeometry x="-170" y="130" width="100" height="40" as="geometry" />
        </mxCell>
        <mxCell id="3-XoSxSuhK3-_moCdqqF-58" value="&lt;font style=&quot;font-size: 14px;&quot;&gt;Servidor&lt;/font&gt;" style="text;strokeColor=none;fillColor=none;html=1;fontSize=24;fontStyle=1;verticalAlign=middle;align=center;" vertex="1" parent="WIyWlLk6GJQsqaUBKTNV-1">
          <mxGeometry x="-160" y="30" width="100" height="40" as="geometry" />
        </mxCell>
        <mxCell id="3-XoSxSuhK3-_moCdqqF-63" value="" style="edgeStyle=orthogonalEdgeStyle;rounded=0;orthogonalLoop=1;jettySize=auto;html=1;" edge="1" parent="WIyWlLk6GJQsqaUBKTNV-1" source="3-XoSxSuhK3-_moCdqqF-59" target="3-XoSxSuhK3-_moCdqqF-60">
          <mxGeometry relative="1" as="geometry" />
        </mxCell>
        <mxCell id="3-XoSxSuhK3-_moCdqqF-59" value="socket" style="rounded=1;whiteSpace=wrap;html=1;fontSize=12;glass=0;strokeWidth=1;shadow=0;" vertex="1" parent="WIyWlLk6GJQsqaUBKTNV-1">
          <mxGeometry x="-100" y="290" width="60" height="20" as="geometry" />
        </mxCell>
        <mxCell id="3-XoSxSuhK3-_moCdqqF-138" value="" style="edgeStyle=orthogonalEdgeStyle;rounded=0;orthogonalLoop=1;jettySize=auto;html=1;" edge="1" parent="WIyWlLk6GJQsqaUBKTNV-1" source="3-XoSxSuhK3-_moCdqqF-60" target="3-XoSxSuhK3-_moCdqqF-137">
          <mxGeometry relative="1" as="geometry" />
        </mxCell>
        <mxCell id="3-XoSxSuhK3-_moCdqqF-60" value="connect" style="rounded=1;whiteSpace=wrap;html=1;fontSize=12;glass=0;strokeWidth=1;shadow=0;" vertex="1" parent="WIyWlLk6GJQsqaUBKTNV-1">
          <mxGeometry x="120" y="290" width="60" height="20" as="geometry" />
        </mxCell>
        <mxCell id="3-XoSxSuhK3-_moCdqqF-64" value="" style="edgeStyle=orthogonalEdgeStyle;rounded=0;orthogonalLoop=1;jettySize=auto;html=1;" edge="1" parent="WIyWlLk6GJQsqaUBKTNV-1" source="3-XoSxSuhK3-_moCdqqF-65" target="3-XoSxSuhK3-_moCdqqF-68">
          <mxGeometry relative="1" as="geometry" />
        </mxCell>
        <mxCell id="3-XoSxSuhK3-_moCdqqF-150" style="edgeStyle=orthogonalEdgeStyle;rounded=0;orthogonalLoop=1;jettySize=auto;html=1;entryX=0;entryY=0.5;entryDx=0;entryDy=0;" edge="1" parent="WIyWlLk6GJQsqaUBKTNV-1" source="3-XoSxSuhK3-_moCdqqF-65" target="3-XoSxSuhK3-_moCdqqF-149">
          <mxGeometry relative="1" as="geometry">
            <Array as="points">
              <mxPoint x="420" y="210" />
              <mxPoint x="320" y="210" />
              <mxPoint x="320" y="190" />
            </Array>
          </mxGeometry>
        </mxCell>
        <mxCell id="3-XoSxSuhK3-_moCdqqF-152" value="Recebendo os dados&lt;div&gt;dos WAVYs está com constante&amp;nbsp;&lt;/div&gt;&lt;div&gt;atualização&lt;/div&gt;" style="edgeLabel;html=1;align=center;verticalAlign=middle;resizable=0;points=[];" vertex="1" connectable="0" parent="3-XoSxSuhK3-_moCdqqF-150">
          <mxGeometry x="0.2619" relative="1" as="geometry">
            <mxPoint x="-50" y="-11" as="offset" />
          </mxGeometry>
        </mxCell>
        <mxCell id="3-XoSxSuhK3-_moCdqqF-65" value="receive" style="rounded=1;whiteSpace=wrap;html=1;fontSize=12;glass=0;strokeWidth=1;shadow=0;" vertex="1" parent="WIyWlLk6GJQsqaUBKTNV-1">
          <mxGeometry x="390" y="220" width="60" height="20" as="geometry" />
        </mxCell>
        <mxCell id="3-XoSxSuhK3-_moCdqqF-66" value="" style="edgeStyle=orthogonalEdgeStyle;rounded=0;orthogonalLoop=1;jettySize=auto;html=1;" edge="1" parent="WIyWlLk6GJQsqaUBKTNV-1" source="3-XoSxSuhK3-_moCdqqF-68" target="3-XoSxSuhK3-_moCdqqF-73">
          <mxGeometry relative="1" as="geometry" />
        </mxCell>
        <mxCell id="3-XoSxSuhK3-_moCdqqF-67" value="OK 100" style="edgeLabel;html=1;align=center;verticalAlign=middle;resizable=0;points=[];" vertex="1" connectable="0" parent="3-XoSxSuhK3-_moCdqqF-66">
          <mxGeometry x="-0.1556" y="-3" relative="1" as="geometry">
            <mxPoint y="-1" as="offset" />
          </mxGeometry>
        </mxCell>
        <mxCell id="3-XoSxSuhK3-_moCdqqF-83" value="" style="edgeStyle=orthogonalEdgeStyle;rounded=0;orthogonalLoop=1;jettySize=auto;html=1;" edge="1" parent="WIyWlLk6GJQsqaUBKTNV-1" source="3-XoSxSuhK3-_moCdqqF-68" target="3-XoSxSuhK3-_moCdqqF-79">
          <mxGeometry relative="1" as="geometry" />
        </mxCell>
        <mxCell id="3-XoSxSuhK3-_moCdqqF-68" value="send" style="rounded=1;whiteSpace=wrap;html=1;fontSize=12;glass=0;strokeWidth=1;shadow=0;" vertex="1" parent="WIyWlLk6GJQsqaUBKTNV-1">
          <mxGeometry x="500" y="220" width="60" height="20" as="geometry" />
        </mxCell>
        <mxCell id="3-XoSxSuhK3-_moCdqqF-69" value="" style="edgeStyle=orthogonalEdgeStyle;rounded=0;orthogonalLoop=1;jettySize=auto;html=1;" edge="1" parent="WIyWlLk6GJQsqaUBKTNV-1" source="3-XoSxSuhK3-_moCdqqF-72" target="3-XoSxSuhK3-_moCdqqF-73">
          <mxGeometry relative="1" as="geometry" />
        </mxCell>
        <mxCell id="3-XoSxSuhK3-_moCdqqF-70" value="" style="edgeStyle=orthogonalEdgeStyle;rounded=0;orthogonalLoop=1;jettySize=auto;html=1;" edge="1" parent="WIyWlLk6GJQsqaUBKTNV-1" source="3-XoSxSuhK3-_moCdqqF-72" target="3-XoSxSuhK3-_moCdqqF-65">
          <mxGeometry relative="1" as="geometry" />
        </mxCell>
        <mxCell id="3-XoSxSuhK3-_moCdqqF-71" value="Envia Dados" style="edgeLabel;html=1;align=center;verticalAlign=middle;resizable=0;points=[];" vertex="1" connectable="0" parent="3-XoSxSuhK3-_moCdqqF-70">
          <mxGeometry x="0.0222" y="-3" relative="1" as="geometry">
            <mxPoint y="-1" as="offset" />
          </mxGeometry>
        </mxCell>
        <mxCell id="3-XoSxSuhK3-_moCdqqF-72" value="send" style="rounded=1;whiteSpace=wrap;html=1;fontSize=12;glass=0;strokeWidth=1;shadow=0;" vertex="1" parent="WIyWlLk6GJQsqaUBKTNV-1">
          <mxGeometry x="390" y="290" width="60" height="20" as="geometry" />
        </mxCell>
        <mxCell id="3-XoSxSuhK3-_moCdqqF-84" value="" style="edgeStyle=orthogonalEdgeStyle;rounded=0;orthogonalLoop=1;jettySize=auto;html=1;" edge="1" parent="WIyWlLk6GJQsqaUBKTNV-1" source="3-XoSxSuhK3-_moCdqqF-73" target="3-XoSxSuhK3-_moCdqqF-80">
          <mxGeometry relative="1" as="geometry" />
        </mxCell>
        <mxCell id="3-XoSxSuhK3-_moCdqqF-73" value="receive" style="rounded=1;whiteSpace=wrap;html=1;fontSize=12;glass=0;strokeWidth=1;shadow=0;" vertex="1" parent="WIyWlLk6GJQsqaUBKTNV-1">
          <mxGeometry x="500" y="290" width="60" height="20" as="geometry" />
        </mxCell>
        <mxCell id="3-XoSxSuhK3-_moCdqqF-78" value="&lt;span style=&quot;font-size: 14px;&quot;&gt;WAVY&lt;/span&gt;" style="text;strokeColor=none;fillColor=none;html=1;fontSize=24;fontStyle=1;verticalAlign=middle;align=center;" vertex="1" parent="WIyWlLk6GJQsqaUBKTNV-1">
          <mxGeometry x="-170" y="250" width="100" height="40" as="geometry" />
        </mxCell>
        <mxCell id="3-XoSxSuhK3-_moCdqqF-79" value="close" style="rounded=1;whiteSpace=wrap;html=1;fontSize=12;glass=0;strokeWidth=1;shadow=0;" vertex="1" parent="WIyWlLk6GJQsqaUBKTNV-1">
          <mxGeometry x="850" y="220" width="60" height="20" as="geometry" />
        </mxCell>
        <mxCell id="3-XoSxSuhK3-_moCdqqF-80" value="close" style="rounded=1;whiteSpace=wrap;html=1;fontSize=12;glass=0;strokeWidth=1;shadow=0;" vertex="1" parent="WIyWlLk6GJQsqaUBKTNV-1">
          <mxGeometry x="850" y="290" width="60" height="20" as="geometry" />
        </mxCell>
        <mxCell id="3-XoSxSuhK3-_moCdqqF-89" value="" style="edgeStyle=orthogonalEdgeStyle;rounded=0;orthogonalLoop=1;jettySize=auto;html=1;" edge="1" parent="WIyWlLk6GJQsqaUBKTNV-1" source="3-XoSxSuhK3-_moCdqqF-85" target="3-XoSxSuhK3-_moCdqqF-87">
          <mxGeometry relative="1" as="geometry" />
        </mxCell>
        <mxCell id="3-XoSxSuhK3-_moCdqqF-90" value="OK 100" style="edgeLabel;html=1;align=center;verticalAlign=middle;resizable=0;points=[];" vertex="1" connectable="0" parent="3-XoSxSuhK3-_moCdqqF-89">
          <mxGeometry x="-0.21" y="1" relative="1" as="geometry">
            <mxPoint as="offset" />
          </mxGeometry>
        </mxCell>
        <mxCell id="3-XoSxSuhK3-_moCdqqF-139" style="edgeStyle=orthogonalEdgeStyle;rounded=0;orthogonalLoop=1;jettySize=auto;html=1;entryX=0;entryY=0.5;entryDx=0;entryDy=0;" edge="1" parent="WIyWlLk6GJQsqaUBKTNV-1" source="3-XoSxSuhK3-_moCdqqF-85" target="3-XoSxSuhK3-_moCdqqF-22">
          <mxGeometry relative="1" as="geometry" />
        </mxCell>
        <mxCell id="3-XoSxSuhK3-_moCdqqF-140" style="edgeStyle=orthogonalEdgeStyle;rounded=0;orthogonalLoop=1;jettySize=auto;html=1;entryX=0.5;entryY=0;entryDx=0;entryDy=0;" edge="1" parent="WIyWlLk6GJQsqaUBKTNV-1" source="3-XoSxSuhK3-_moCdqqF-85" target="3-XoSxSuhK3-_moCdqqF-99">
          <mxGeometry relative="1" as="geometry">
            <Array as="points">
              <mxPoint x="240" y="50" />
              <mxPoint x="640" y="50" />
            </Array>
          </mxGeometry>
        </mxCell>
        <mxCell id="3-XoSxSuhK3-_moCdqqF-85" value="send" style="rounded=1;whiteSpace=wrap;html=1;fontSize=12;glass=0;strokeWidth=1;shadow=0;" vertex="1" parent="WIyWlLk6GJQsqaUBKTNV-1">
          <mxGeometry x="210" y="70" width="60" height="20" as="geometry" />
        </mxCell>
        <mxCell id="3-XoSxSuhK3-_moCdqqF-95" style="edgeStyle=orthogonalEdgeStyle;rounded=0;orthogonalLoop=1;jettySize=auto;html=1;entryX=0;entryY=0.5;entryDx=0;entryDy=0;" edge="1" parent="WIyWlLk6GJQsqaUBKTNV-1" source="3-XoSxSuhK3-_moCdqqF-87" target="3-XoSxSuhK3-_moCdqqF-28">
          <mxGeometry relative="1" as="geometry" />
        </mxCell>
        <mxCell id="3-XoSxSuhK3-_moCdqqF-87" value="receive" style="rounded=1;whiteSpace=wrap;html=1;fontSize=12;glass=0;strokeWidth=1;shadow=0;" vertex="1" parent="WIyWlLk6GJQsqaUBKTNV-1">
          <mxGeometry x="210" y="140" width="60" height="20" as="geometry" />
        </mxCell>
        <mxCell id="3-XoSxSuhK3-_moCdqqF-91" value="" style="endArrow=none;dashed=1;html=1;dashPattern=1 3;strokeWidth=2;rounded=0;" edge="1" parent="WIyWlLk6GJQsqaUBKTNV-1">
          <mxGeometry width="50" height="50" relative="1" as="geometry">
            <mxPoint x="100" y="320" as="sourcePoint" />
            <mxPoint x="100" as="targetPoint" />
          </mxGeometry>
        </mxCell>
        <mxCell id="3-XoSxSuhK3-_moCdqqF-92" value="&lt;b&gt;PRÉ COMUNICAÇÃO&lt;/b&gt;" style="text;html=1;align=center;verticalAlign=middle;whiteSpace=wrap;rounded=0;" vertex="1" parent="WIyWlLk6GJQsqaUBKTNV-1">
          <mxGeometry x="-90" width="140" height="30" as="geometry" />
        </mxCell>
        <mxCell id="3-XoSxSuhK3-_moCdqqF-93" value="&lt;b&gt;EM COMUNIÇÃO&lt;/b&gt;" style="text;html=1;align=center;verticalAlign=middle;whiteSpace=wrap;rounded=0;" vertex="1" parent="WIyWlLk6GJQsqaUBKTNV-1">
          <mxGeometry x="230" width="120" height="30" as="geometry" />
        </mxCell>
        <mxCell id="3-XoSxSuhK3-_moCdqqF-98" value="" style="edgeStyle=orthogonalEdgeStyle;rounded=0;orthogonalLoop=1;jettySize=auto;html=1;" edge="1" parent="WIyWlLk6GJQsqaUBKTNV-1" source="3-XoSxSuhK3-_moCdqqF-99" target="3-XoSxSuhK3-_moCdqqF-103">
          <mxGeometry relative="1" as="geometry" />
        </mxCell>
        <mxCell id="3-XoSxSuhK3-_moCdqqF-99" value="receive" style="rounded=1;whiteSpace=wrap;html=1;fontSize=12;glass=0;strokeWidth=1;shadow=0;" vertex="1" parent="WIyWlLk6GJQsqaUBKTNV-1">
          <mxGeometry x="610" y="70" width="60" height="20" as="geometry" />
        </mxCell>
        <mxCell id="3-XoSxSuhK3-_moCdqqF-101" value="" style="edgeStyle=orthogonalEdgeStyle;rounded=0;orthogonalLoop=1;jettySize=auto;html=1;" edge="1" parent="WIyWlLk6GJQsqaUBKTNV-1" source="3-XoSxSuhK3-_moCdqqF-103" target="3-XoSxSuhK3-_moCdqqF-108">
          <mxGeometry relative="1" as="geometry" />
        </mxCell>
        <mxCell id="3-XoSxSuhK3-_moCdqqF-102" value="BYE 400" style="edgeLabel;html=1;align=center;verticalAlign=middle;resizable=0;points=[];" vertex="1" connectable="0" parent="3-XoSxSuhK3-_moCdqqF-101">
          <mxGeometry x="-0.1556" y="-3" relative="1" as="geometry">
            <mxPoint y="-1" as="offset" />
          </mxGeometry>
        </mxCell>
        <mxCell id="3-XoSxSuhK3-_moCdqqF-112" value="" style="edgeStyle=orthogonalEdgeStyle;rounded=0;orthogonalLoop=1;jettySize=auto;html=1;" edge="1" parent="WIyWlLk6GJQsqaUBKTNV-1" source="3-XoSxSuhK3-_moCdqqF-103" target="3-XoSxSuhK3-_moCdqqF-26">
          <mxGeometry relative="1" as="geometry" />
        </mxCell>
        <mxCell id="3-XoSxSuhK3-_moCdqqF-103" value="send" style="rounded=1;whiteSpace=wrap;html=1;fontSize=12;glass=0;strokeWidth=1;shadow=0;" vertex="1" parent="WIyWlLk6GJQsqaUBKTNV-1">
          <mxGeometry x="720" y="70" width="60" height="20" as="geometry" />
        </mxCell>
        <mxCell id="3-XoSxSuhK3-_moCdqqF-105" value="" style="edgeStyle=orthogonalEdgeStyle;rounded=0;orthogonalLoop=1;jettySize=auto;html=1;" edge="1" parent="WIyWlLk6GJQsqaUBKTNV-1" source="3-XoSxSuhK3-_moCdqqF-107" target="3-XoSxSuhK3-_moCdqqF-99">
          <mxGeometry relative="1" as="geometry" />
        </mxCell>
        <mxCell id="3-XoSxSuhK3-_moCdqqF-106" value="QUIT" style="edgeLabel;html=1;align=center;verticalAlign=middle;resizable=0;points=[];" vertex="1" connectable="0" parent="3-XoSxSuhK3-_moCdqqF-105">
          <mxGeometry x="0.0222" y="-3" relative="1" as="geometry">
            <mxPoint y="-1" as="offset" />
          </mxGeometry>
        </mxCell>
        <mxCell id="3-XoSxSuhK3-_moCdqqF-115" value="" style="edgeStyle=orthogonalEdgeStyle;rounded=0;orthogonalLoop=1;jettySize=auto;html=1;" edge="1" parent="WIyWlLk6GJQsqaUBKTNV-1" source="3-XoSxSuhK3-_moCdqqF-107" target="3-XoSxSuhK3-_moCdqqF-108">
          <mxGeometry relative="1" as="geometry" />
        </mxCell>
        <mxCell id="3-XoSxSuhK3-_moCdqqF-107" value="send" style="rounded=1;whiteSpace=wrap;html=1;fontSize=12;glass=0;strokeWidth=1;shadow=0;" vertex="1" parent="WIyWlLk6GJQsqaUBKTNV-1">
          <mxGeometry x="610" y="140" width="60" height="20" as="geometry" />
        </mxCell>
        <mxCell id="3-XoSxSuhK3-_moCdqqF-111" value="" style="edgeStyle=orthogonalEdgeStyle;rounded=0;orthogonalLoop=1;jettySize=auto;html=1;" edge="1" parent="WIyWlLk6GJQsqaUBKTNV-1" source="3-XoSxSuhK3-_moCdqqF-108" target="3-XoSxSuhK3-_moCdqqF-32">
          <mxGeometry relative="1" as="geometry" />
        </mxCell>
        <mxCell id="3-XoSxSuhK3-_moCdqqF-108" value="receive" style="rounded=1;whiteSpace=wrap;html=1;fontSize=12;glass=0;strokeWidth=1;shadow=0;" vertex="1" parent="WIyWlLk6GJQsqaUBKTNV-1">
          <mxGeometry x="720" y="140" width="60" height="20" as="geometry" />
        </mxCell>
        <mxCell id="3-XoSxSuhK3-_moCdqqF-116" value="" style="endArrow=none;dashed=1;html=1;dashPattern=1 3;strokeWidth=2;rounded=0;" edge="1" parent="WIyWlLk6GJQsqaUBKTNV-1">
          <mxGeometry width="50" height="50" relative="1" as="geometry">
            <mxPoint x="580" y="320" as="sourcePoint" />
            <mxPoint x="580" as="targetPoint" />
          </mxGeometry>
        </mxCell>
        <mxCell id="3-XoSxSuhK3-_moCdqqF-117" value="" style="endArrow=none;dashed=1;html=1;dashPattern=1 3;strokeWidth=2;rounded=0;" edge="1" parent="WIyWlLk6GJQsqaUBKTNV-1">
          <mxGeometry width="50" height="50" relative="1" as="geometry">
            <mxPoint x="800" y="320" as="sourcePoint" />
            <mxPoint x="800" as="targetPoint" />
          </mxGeometry>
        </mxCell>
        <mxCell id="3-XoSxSuhK3-_moCdqqF-118" value="&lt;b&gt;Pré Encerramento&lt;/b&gt;" style="text;html=1;align=center;verticalAlign=middle;whiteSpace=wrap;rounded=0;" vertex="1" parent="WIyWlLk6GJQsqaUBKTNV-1">
          <mxGeometry x="620" width="120" height="30" as="geometry" />
        </mxCell>
        <mxCell id="3-XoSxSuhK3-_moCdqqF-119" value="&lt;b&gt;Encerramento&lt;/b&gt;" style="text;html=1;align=center;verticalAlign=middle;whiteSpace=wrap;rounded=0;" vertex="1" parent="WIyWlLk6GJQsqaUBKTNV-1">
          <mxGeometry x="810" width="120" height="30" as="geometry" />
        </mxCell>
        <mxCell id="3-XoSxSuhK3-_moCdqqF-131" value="" style="endArrow=none;html=1;rounded=0;" edge="1" parent="WIyWlLk6GJQsqaUBKTNV-1">
          <mxGeometry width="50" height="50" relative="1" as="geometry">
            <mxPoint x="150" y="270" as="sourcePoint" />
            <mxPoint x="120" y="270" as="targetPoint" />
          </mxGeometry>
        </mxCell>
        <mxCell id="3-XoSxSuhK3-_moCdqqF-132" value="Ponto de Sincronização" style="text;html=1;align=center;verticalAlign=middle;whiteSpace=wrap;rounded=0;" vertex="1" parent="WIyWlLk6GJQsqaUBKTNV-1">
          <mxGeometry x="40" y="250" width="80" height="30" as="geometry" />
        </mxCell>
        <mxCell id="3-XoSxSuhK3-_moCdqqF-133" value="" style="endArrow=classic;startArrow=classic;html=1;rounded=0;entryX=0.5;entryY=1;entryDx=0;entryDy=0;exitX=0.5;exitY=0;exitDx=0;exitDy=0;" edge="1" parent="WIyWlLk6GJQsqaUBKTNV-1">
          <mxGeometry width="50" height="50" relative="1" as="geometry">
            <mxPoint x="150" y="290" as="sourcePoint" />
            <mxPoint x="150" y="240" as="targetPoint" />
          </mxGeometry>
        </mxCell>
        <mxCell id="3-XoSxSuhK3-_moCdqqF-141" style="edgeStyle=orthogonalEdgeStyle;rounded=0;orthogonalLoop=1;jettySize=auto;html=1;entryX=0;entryY=0.5;entryDx=0;entryDy=0;" edge="1" parent="WIyWlLk6GJQsqaUBKTNV-1" source="3-XoSxSuhK3-_moCdqqF-134" target="3-XoSxSuhK3-_moCdqqF-65">
          <mxGeometry relative="1" as="geometry" />
        </mxCell>
        <mxCell id="3-XoSxSuhK3-_moCdqqF-134" value="receive" style="rounded=1;whiteSpace=wrap;html=1;fontSize=12;glass=0;strokeWidth=1;shadow=0;" vertex="1" parent="WIyWlLk6GJQsqaUBKTNV-1">
          <mxGeometry x="210" y="220" width="60" height="20" as="geometry" />
        </mxCell>
        <mxCell id="3-XoSxSuhK3-_moCdqqF-142" style="edgeStyle=orthogonalEdgeStyle;rounded=0;orthogonalLoop=1;jettySize=auto;html=1;entryX=0;entryY=0.5;entryDx=0;entryDy=0;" edge="1" parent="WIyWlLk6GJQsqaUBKTNV-1" source="3-XoSxSuhK3-_moCdqqF-137" target="3-XoSxSuhK3-_moCdqqF-72">
          <mxGeometry relative="1" as="geometry" />
        </mxCell>
        <mxCell id="3-XoSxSuhK3-_moCdqqF-143" value="" style="edgeStyle=orthogonalEdgeStyle;rounded=0;orthogonalLoop=1;jettySize=auto;html=1;" edge="1" parent="WIyWlLk6GJQsqaUBKTNV-1" source="3-XoSxSuhK3-_moCdqqF-137" target="3-XoSxSuhK3-_moCdqqF-134">
          <mxGeometry relative="1" as="geometry" />
        </mxCell>
        <mxCell id="3-XoSxSuhK3-_moCdqqF-144" value="IP" style="edgeLabel;html=1;align=center;verticalAlign=middle;resizable=0;points=[];" vertex="1" connectable="0" parent="3-XoSxSuhK3-_moCdqqF-143">
          <mxGeometry x="-0.23" y="-3" relative="1" as="geometry">
            <mxPoint y="-1" as="offset" />
          </mxGeometry>
        </mxCell>
        <mxCell id="3-XoSxSuhK3-_moCdqqF-137" value="send" style="rounded=1;whiteSpace=wrap;html=1;fontSize=12;glass=0;strokeWidth=1;shadow=0;" vertex="1" parent="WIyWlLk6GJQsqaUBKTNV-1">
          <mxGeometry x="210" y="290" width="60" height="20" as="geometry" />
        </mxCell>
        <mxCell id="3-XoSxSuhK3-_moCdqqF-149" value="Update Files" style="rounded=1;whiteSpace=wrap;html=1;fontSize=12;glass=0;strokeWidth=1;shadow=0;" vertex="1" parent="WIyWlLk6GJQsqaUBKTNV-1">
          <mxGeometry x="370" y="180" width="70" height="20" as="geometry" />
        </mxCell>
        <mxCell id="3-XoSxSuhK3-_moCdqqF-153" style="edgeStyle=orthogonalEdgeStyle;rounded=0;orthogonalLoop=1;jettySize=auto;html=1;entryX=0.5;entryY=1;entryDx=0;entryDy=0;" edge="1" parent="WIyWlLk6GJQsqaUBKTNV-1" source="3-XoSxSuhK3-_moCdqqF-149" target="3-XoSxSuhK3-_moCdqqF-28">
          <mxGeometry relative="1" as="geometry">
            <Array as="points">
              <mxPoint x="480" y="190" />
              <mxPoint x="480" y="170" />
              <mxPoint x="420" y="170" />
            </Array>
          </mxGeometry>
        </mxCell>
        <mxCell id="3-XoSxSuhK3-_moCdqqF-154" value="Prepara o envio&lt;div&gt;para o Server&lt;/div&gt;" style="edgeLabel;html=1;align=center;verticalAlign=middle;resizable=0;points=[];" vertex="1" connectable="0" parent="3-XoSxSuhK3-_moCdqqF-153">
          <mxGeometry x="-0.2605" y="-1" relative="1" as="geometry">
            <mxPoint y="4" as="offset" />
          </mxGeometry>
        </mxCell>
      </root>
    </mxGraphModel>
  </diagram>
</mxfile>
